<svg width="209" height="56" viewBox="0 0 209 56" fill="none" xmlns="http://www.w3.org/2000/svg">
<path fill-rule="evenodd" clip-rule="evenodd" d="M176.649 29.1216C174.52 38.6855 174.813 47.7039 179.534 55.9088C179.862 56.0067 180.213 56.0262 180.552 55.9652C180.891 55.9042 181.205 55.7649 181.461 55.5621C176.09 51.2031 175.047 37.7055 177.357 29.1771L176.649 29.1216Z" fill="#419A59"/>
<path fill-rule="evenodd" clip-rule="evenodd" d="M176.426 30.7025C174.765 39.2587 175.047 47.8056 179.577 55.7378C179.822 55.7979 180.08 55.8108 180.332 55.7757C180.584 55.7406 180.824 55.6583 181.035 55.5344C177.001 52.0629 176 44.177 175.888 39.5545C175.846 37.2279 175.994 34.9016 176.33 32.5931C176.444 31.9681 176.476 31.3338 176.426 30.7025Z" fill="#328147"/>
<path fill-rule="evenodd" clip-rule="evenodd" d="M175.643 35.9952L174.547 36.328L172.892 34.1555L176.059 30.8966L178.725 34.3635L176.703 36.2587L175.643 35.9952Z" fill="#5D9021"/>
<path fill-rule="evenodd" clip-rule="evenodd" d="M175.745 35.2556C174.781 22.3127 178.007 9.78116 181.78 0.933746C182.211 8.32971 176.884 27.1663 175.745 35.2556Z" fill="#419A59"/>
<path fill-rule="evenodd" clip-rule="evenodd" d="M175.745 35.2556C176.905 22.1925 179.939 9.67485 181.78 0.933746C182.211 8.32971 176.884 27.1663 175.745 35.2556Z" fill="#328147"/>
<path fill-rule="evenodd" clip-rule="evenodd" d="M175.734 35.2741C178.038 19.285 180.865 11.0893 186.304 2.87518C185.671 10.5762 178.778 27.1524 175.734 35.2741Z" fill="#248A68"/>
<path fill-rule="evenodd" clip-rule="evenodd" d="M175.734 35.2741C179.342 19.3127 183.217 11.5885 186.304 2.87518C185.671 10.5762 178.778 27.1524 175.734 35.2741Z" fill="#197D48"/>
<path fill-rule="evenodd" clip-rule="evenodd" d="M175.718 35.2926C180.561 19.7241 183.92 13.8212 190.265 5.10782C188.662 14.191 180.035 27.6147 175.718 35.2926Z" fill="#48A679"/>
<path fill-rule="evenodd" clip-rule="evenodd" d="M175.718 35.2926C181.754 18.9614 186.645 14.5931 190.265 5.10782C188.662 14.191 180.035 27.6147 175.718 35.2926Z" fill="#2E8C60"/>
<path fill-rule="evenodd" clip-rule="evenodd" d="M175.638 34.9875C183.579 19.8535 188.269 14.4175 193.687 7.04465C192.01 17.9398 181.855 28.9228 175.638 34.9875Z" fill="#419A59"/>
<path fill-rule="evenodd" clip-rule="evenodd" d="M175.638 34.9875C186.113 20.9907 189.961 15.1663 193.692 7.04002C192.01 17.9398 181.855 28.9228 175.638 34.9875Z" fill="#328147"/>
<path fill-rule="evenodd" clip-rule="evenodd" d="M175.697 35.006C187.177 20.9676 192.99 16.1047 201.048 11.7087C194.288 18.832 183.877 30.4483 175.697 35.006Z" fill="#248A68"/>
<path fill-rule="evenodd" clip-rule="evenodd" d="M175.697 35.006C189.078 22.3589 194.288 17.0569 201.053 11.7087C194.288 18.832 183.877 30.4483 175.697 35.006Z" fill="#197D48"/>
<path fill-rule="evenodd" clip-rule="evenodd" d="M175.729 35.0291C189.636 22.5207 195.694 19.8674 204.524 16.8073C196.391 22.7565 184.724 31.8304 175.729 35.0291Z" fill="#48A679"/>
<path fill-rule="evenodd" clip-rule="evenodd" d="M175.729 35.0291C190.674 24.5222 196.322 20.6994 204.524 16.8119C196.391 22.7564 184.724 31.8304 175.729 35.0291Z" fill="#2E8C60"/>
<path fill-rule="evenodd" clip-rule="evenodd" d="M175.681 35.1955C172.093 41.63 166.451 46.7517 160.533 50.6438C164.902 45.1338 169.964 39.5869 175.681 35.1955Z" fill="#2E8C60"/>
<path fill-rule="evenodd" clip-rule="evenodd" d="M175.681 35.1955C172.093 41.63 166.451 46.7517 160.533 50.6438C166.035 45.8427 171.099 40.6777 175.681 35.1955Z" fill="#48A679"/>
<path fill-rule="evenodd" clip-rule="evenodd" d="M175.739 35.0384C171.077 40.8812 163.226 47.2602 156.871 50.6485C161.858 45.5314 169.544 38.912 175.739 35.0384Z" fill="#328147"/>
<path fill-rule="evenodd" clip-rule="evenodd" d="M175.739 35.0384C171.077 40.8812 163.226 47.2602 156.871 50.6485C163.455 45.7671 169.815 40.7471 175.739 35.0384Z" fill="#419A59"/>
<path fill-rule="evenodd" clip-rule="evenodd" d="M175.58 35.2001C169.725 39.9705 160.719 46.1277 154.018 48.8965C159.708 43.895 168.607 37.5299 175.58 35.2001Z" fill="#197D48"/>
<path fill-rule="evenodd" clip-rule="evenodd" d="M175.58 35.2001C169.725 39.9705 160.719 46.1277 154.018 48.8965C161.278 44.2325 168.469 39.647 175.58 35.2001Z" fill="#248A68"/>
<path fill-rule="evenodd" clip-rule="evenodd" d="M175.574 35.2001C168.809 39.6423 155.913 44.0429 150.063 46.7563C156.386 42.0044 168.24 36.402 175.574 35.2001Z" fill="#2E8C60"/>
<path fill-rule="evenodd" clip-rule="evenodd" d="M175.574 35.2001C168.809 39.6423 155.913 44.0429 150.063 46.7563C157.903 41.9628 167.069 39.0599 175.574 35.2001Z" fill="#48A679"/>
<path fill-rule="evenodd" clip-rule="evenodd" d="M175.585 35.0568C171.95 36.3604 166.84 38.4775 161.523 39.8688C156.04 41.311 150.957 42.009 146.79 42.9058C153.949 38.9582 168.123 35.1447 175.585 35.0568Z" fill="#328147"/>
<path fill-rule="evenodd" clip-rule="evenodd" d="M175.585 35.0568C171.95 36.3604 166.84 38.4775 161.523 39.8688C156.04 41.311 150.957 42.009 146.79 42.9058C156.253 39.6238 166.02 37.8534 175.585 35.0568Z" fill="#419A59"/>
<path fill-rule="evenodd" clip-rule="evenodd" d="M175.606 35.0615C171.742 35.8011 166.318 37.1185 160.809 37.7055C155.125 38.3018 149.009 38.63 144.73 38.8889C152.581 35.8981 168.133 34.3173 175.606 35.0615Z" fill="#197D48"/>
<path fill-rule="evenodd" clip-rule="evenodd" d="M175.606 35.0615C171.742 35.8011 166.318 37.1185 160.809 37.7055C155.125 38.3018 149.009 38.63 144.73 38.8889C155.04 36.4713 165.536 36.6562 175.606 35.0615Z" fill="#248A68"/>
<path fill-rule="evenodd" clip-rule="evenodd" d="M175.633 35.0707C171.705 35.2186 165.999 35.9305 160.458 35.667C154.747 35.3943 147.258 34.5022 143 34.1092C151.303 32.5191 168.405 33.4159 175.633 35.0707Z" fill="#2E8C60"/>
<path fill-rule="evenodd" clip-rule="evenodd" d="M175.633 35.0707C171.705 35.2186 165.999 35.9305 160.458 35.667C154.747 35.3943 147.258 34.5022 143 34.1092C154.598 33.781 164.658 35.2233 175.633 35.0707Z" fill="#48A679"/>
<path fill-rule="evenodd" clip-rule="evenodd" d="M175.659 35.0337C164.289 34.942 153.102 32.5322 143 27.9983C150.175 28.1925 167.707 32.4036 175.659 35.0337Z" fill="#328147"/>
<path fill-rule="evenodd" clip-rule="evenodd" d="M175.659 35.0337C164.289 34.942 153.102 32.5322 143 27.9983C153.72 30.6747 164.493 33.5869 175.659 35.0337Z" fill="#419A59"/>
<path fill-rule="evenodd" clip-rule="evenodd" d="M175.686 35.0476C162.981 33.328 150.734 28.0261 143.389 23.3204C150.425 24.4714 168.288 31.4051 175.686 35.0476Z" fill="#197D48"/>
<path fill-rule="evenodd" clip-rule="evenodd" d="M175.686 35.0476C162.981 33.328 150.734 28.0261 143.389 23.3204C153.97 27.6054 164.29 32.1586 175.686 35.0476Z" fill="#248A68"/>
<path fill-rule="evenodd" clip-rule="evenodd" d="M175.713 35.0661C163.577 31.3958 154.555 24.7626 144.959 19.5346C154.417 20.9167 169.192 30.3096 175.713 35.0661Z" fill="#2E8C60"/>
<path fill-rule="evenodd" clip-rule="evenodd" d="M175.713 35.0661C163.577 31.3958 154.555 24.7626 144.959 19.5346C155.434 23.3342 165.355 30.4205 175.713 35.0661Z" fill="#48A679"/>
<path fill-rule="evenodd" clip-rule="evenodd" d="M175.734 35.0892C164.556 29.5838 154.784 20.9398 147.609 14.0616C156.051 17.5284 170.305 29.4082 175.734 35.0892Z" fill="#328147"/>
<path fill-rule="evenodd" clip-rule="evenodd" d="M175.734 35.0892C164.556 29.5838 154.784 20.9398 147.609 14.0616C157.259 20.7087 166.478 29.2556 175.734 35.0892Z" fill="#419A59"/>
<path fill-rule="evenodd" clip-rule="evenodd" d="M175.75 35.1169C165.637 28.1832 156.557 17.5515 151.99 9.31891C159.569 14.9814 171.556 28.6917 175.75 35.1169Z" fill="#197D48"/>
<path fill-rule="evenodd" clip-rule="evenodd" d="M175.75 35.1169C165.637 28.1832 156.557 17.5515 151.99 9.31891C159.851 17.9676 167.228 27.7487 175.75 35.1169Z" fill="#248A68"/>
<path fill-rule="evenodd" clip-rule="evenodd" d="M175.76 35.1493C165.887 26.8936 159.34 14.399 158.042 5.25577C161.533 13.7796 172.365 28.6501 175.76 35.1493Z" fill="#2E8C60"/>
<path fill-rule="evenodd" clip-rule="evenodd" d="M175.76 35.1493C165.887 26.8936 159.34 14.399 158.042 5.25577C159.59 10.8952 162.587 17.0708 166.483 22.9136C169.319 27.1349 172.416 31.2195 175.76 35.1493Z" fill="#48A679"/>
<path fill-rule="evenodd" clip-rule="evenodd" d="M175.766 35.1585C168.953 25.3728 161.884 12.4391 159.564 3.87825C165.419 10.7472 174.031 27.5731 175.766 35.1585Z" fill="#328147"/>
<path fill-rule="evenodd" clip-rule="evenodd" d="M175.766 35.1585C168.953 25.3728 161.884 12.4391 159.564 3.87825C163.077 10.8952 171.513 28.0261 175.766 35.1585Z" fill="#419A59"/>
<path fill-rule="evenodd" clip-rule="evenodd" d="M175.766 35.1863C169.826 24.6655 165.168 10.8027 165.493 1.93683C168.953 9.97069 174.568 27.8227 175.766 35.1863Z" fill="#197D48"/>
<path fill-rule="evenodd" clip-rule="evenodd" d="M175.766 35.1863C169.826 24.6655 165.168 10.8027 165.493 1.93683C166.882 10.8212 172.434 28.6917 175.766 35.1863Z" fill="#248A68"/>
<path fill-rule="evenodd" clip-rule="evenodd" d="M175.766 35.2002C170.928 24.2588 169.405 11.2372 166.59 1.22496C172.402 8.23726 175.558 27.5361 175.766 35.2002Z" fill="#2E8C60"/>
<path fill-rule="evenodd" clip-rule="evenodd" d="M175.766 35.2002C170.928 24.2588 169.405 11.2372 166.59 1.22496C170.981 9.79503 172.274 25.59 175.766 35.2002Z" fill="#48A679"/>
<path fill-rule="evenodd" clip-rule="evenodd" d="M175.76 35.2094C171.784 23.4406 171.705 9.97067 170.715 0.314316C174.685 7.69179 175.782 27.3974 175.76 35.2094Z" fill="#328147"/>
<path fill-rule="evenodd" clip-rule="evenodd" d="M175.76 35.2094C171.784 23.4406 171.705 9.97067 170.715 0.314316C173.227 7.65943 173.339 27.6147 175.76 35.2094Z" fill="#419A59"/>
<path fill-rule="evenodd" clip-rule="evenodd" d="M175.755 35.2417C173.589 22.4098 175.713 9.15712 178.661 0.0785828C179.284 7.11399 176.133 27.1016 175.755 35.2417Z" fill="#48A679"/>
<path fill-rule="evenodd" clip-rule="evenodd" d="M175.755 35.2417C176.144 20.9121 177.022 8.36206 178.656 0.0785828C179.284 7.11399 176.133 27.1016 175.755 35.2417Z" fill="#2E8C60"/>
<path fill-rule="evenodd" clip-rule="evenodd" d="M175.755 35.0476C191.601 24.4159 196.897 22.872 206.147 20.9583C197.109 25.8211 185.182 33.0183 175.755 35.0476Z" fill="#419A59"/>
<path fill-rule="evenodd" clip-rule="evenodd" d="M175.755 35.0476C193.852 26.0939 198.062 23.7503 206.147 20.9583C197.109 25.8211 185.182 33.0183 175.755 35.0476Z" fill="#328147"/>
<path fill-rule="evenodd" clip-rule="evenodd" d="M175.776 35.0753C193.506 27.6239 198.195 27.4344 207.643 25.8812C197.886 29.8935 185.581 34.932 175.776 35.0753Z" fill="#248A68"/>
<path fill-rule="evenodd" clip-rule="evenodd" d="M175.776 35.0753C194.714 29.6116 198.887 28.5808 207.643 25.8859C197.886 29.8935 185.581 34.932 175.776 35.0753Z" fill="#197D48"/>
<path fill-rule="evenodd" clip-rule="evenodd" d="M175.792 35.1031C202.613 29.5006 204.593 29.6763 209 29.4452C198.887 32.9999 185.533 36.1293 175.792 35.1031Z" fill="#419A59"/>
<path fill-rule="evenodd" clip-rule="evenodd" d="M175.792 35.1031C197.551 32.7918 203.177 30.5915 209 29.4452C198.887 32.9999 185.533 36.1293 175.792 35.1031Z" fill="#328147"/>
<path fill-rule="evenodd" clip-rule="evenodd" d="M175.803 35.1354C190.531 33.6146 196.992 35.3573 208.271 33.8781C198.355 36.402 185.676 37.8072 175.803 35.1354Z" fill="#48A679"/>
<path fill-rule="evenodd" clip-rule="evenodd" d="M175.803 35.1354C185.597 35.0384 193.958 36.3188 208.271 33.8781C198.355 36.402 185.676 37.8072 175.803 35.1354Z" fill="#2E8C60"/>
<path fill-rule="evenodd" clip-rule="evenodd" d="M175.808 35.2048C191.632 36.7949 199.1 39.6331 206.376 43.7517C197.705 40.4097 184.021 39.0692 175.808 35.2048Z" fill="#248A68"/>
<path fill-rule="evenodd" clip-rule="evenodd" d="M175.808 35.2048C188.05 38.1262 199.297 40.1231 206.376 43.7517C197.705 40.4097 184.021 39.0692 175.808 35.2048Z" fill="#197D48"/>
<path fill-rule="evenodd" clip-rule="evenodd" d="M175.798 35.2417C190.94 39.499 196.146 42.7348 202.613 48.0321C194.682 43.3449 182.973 40.4328 175.798 35.2417Z" fill="#419A59"/>
<path fill-rule="evenodd" clip-rule="evenodd" d="M175.798 35.2417C190.871 41.4405 196.098 43.9459 202.613 48.0368C194.682 43.3449 182.973 40.4328 175.798 35.2417Z" fill="#328147"/>
<path fill-rule="evenodd" clip-rule="evenodd" d="M175.771 35.2926C189.424 42.328 194.491 50.0291 197.849 52.1415C192.74 50.0383 181.126 41.9351 175.771 35.2926Z" fill="#4F9E79"/>
<path fill-rule="evenodd" clip-rule="evenodd" d="M175.771 35.2926C185.421 42.9058 193.07 49.3542 197.849 52.1461C192.74 50.0383 181.126 41.9351 175.771 35.2926Z" fill="#2E8C60"/>
<path fill-rule="evenodd" clip-rule="evenodd" d="M175.745 35.3203C187.247 44.5653 190.451 51.2309 193.463 53.9489C188.599 51.3418 179.561 42.7209 175.745 35.3203Z" fill="#248A68"/>
<path fill-rule="evenodd" clip-rule="evenodd" d="M175.745 35.3203C184.644 45.0737 185.357 47.1492 193.463 53.9489C188.599 51.3418 179.561 42.7209 175.745 35.3203Z" fill="#197D48"/>
<path fill-rule="evenodd" clip-rule="evenodd" d="M175.723 35.3388C183.75 46.026 186.469 50.1862 189.386 53.3942C184.319 50.2787 177.895 43.2525 175.723 35.3388Z" fill="#419A59"/>
<path fill-rule="evenodd" clip-rule="evenodd" d="M175.723 35.3388C181.535 45.7394 185.096 49.9921 189.386 53.3942C184.319 50.2787 177.895 43.2525 175.723 35.3388Z" fill="#328147"/>
<path fill-rule="evenodd" clip-rule="evenodd" d="M175.76 35.2279C173.057 22.9182 173.631 9.58701 174.696 0C176.756 7.55775 176.128 27.1478 175.76 35.2279Z" fill="#197D48"/>
<path fill-rule="evenodd" clip-rule="evenodd" d="M175.76 35.2279C173.057 22.9182 173.631 9.58701 174.696 0C175.122 7.71029 174.76 27.0738 175.76 35.2279Z" fill="#248A68"/>
<path d="M2.256 38V21.2H10.128C12.144 21.2 13.68 21.6 14.736 22.4C15.792 23.184 16.32 24.24 16.32 25.568C16.32 26.464 16.112 27.232 15.696 27.872C15.28 28.496 14.72 28.984 14.016 29.336C13.328 29.672 12.576 29.84 11.76 29.84L12.192 28.976C13.136 28.976 13.984 29.152 14.736 29.504C15.488 29.84 16.08 30.336 16.512 30.992C16.96 31.648 17.184 32.464 17.184 33.44C17.184 34.88 16.632 36 15.528 36.8C14.424 37.6 12.784 38 10.608 38H2.256ZM5.376 35.552H10.416C11.584 35.552 12.48 35.36 13.104 34.976C13.728 34.592 14.04 33.976 14.04 33.128C14.04 32.296 13.728 31.688 13.104 31.304C12.48 30.904 11.584 30.704 10.416 30.704H5.136V28.28H9.792C10.88 28.28 11.712 28.088 12.288 27.704C12.88 27.32 13.176 26.744 13.176 25.976C13.176 25.192 12.88 24.608 12.288 24.224C11.712 23.84 10.88 23.648 9.792 23.648H5.376V35.552ZM20.2258 38V25.184H23.0818V28.712L22.7458 27.68C23.1298 26.816 23.7298 26.16 24.5458 25.712C25.3778 25.264 26.4098 25.04 27.6418 25.04V27.896C27.5138 27.864 27.3938 27.848 27.2818 27.848C27.1698 27.832 27.0578 27.824 26.9458 27.824C25.8098 27.824 24.9058 28.16 24.2338 28.832C23.5618 29.488 23.2258 30.472 23.2258 31.784V38H20.2258ZM37.1687 38V35.408L37.0007 34.856V30.32C37.0007 29.44 36.7367 28.76 36.2087 28.28C35.6807 27.784 34.8807 27.536 33.8087 27.536C33.0887 27.536 32.3767 27.648 31.6727 27.872C30.9847 28.096 30.4007 28.408 29.9207 28.808L28.7447 26.624C29.4327 26.096 30.2487 25.704 31.1927 25.448C32.1527 25.176 33.1447 25.04 34.1687 25.04C36.0247 25.04 37.4567 25.488 38.4647 26.384C39.4887 27.264 40.0007 28.632 40.0007 30.488V38H37.1687ZM33.1367 38.168C32.1767 38.168 31.3367 38.008 30.6167 37.688C29.8967 37.352 29.3367 36.896 28.9367 36.32C28.5527 35.728 28.3607 35.064 28.3607 34.328C28.3607 33.608 28.5287 32.96 28.8647 32.384C29.2167 31.808 29.7847 31.352 30.5687 31.016C31.3527 30.68 32.3927 30.512 33.6887 30.512H37.4087V32.504H33.9047C32.8807 32.504 32.1927 32.672 31.8407 33.008C31.4887 33.328 31.3127 33.728 31.3127 34.208C31.3127 34.752 31.5287 35.184 31.9607 35.504C32.3927 35.824 32.9927 35.984 33.7607 35.984C34.4967 35.984 35.1527 35.816 35.7287 35.48C36.3207 35.144 36.7447 34.648 37.0007 33.992L37.5047 35.792C37.2167 36.544 36.6967 37.128 35.9447 37.544C35.2087 37.96 34.2727 38.168 33.1367 38.168ZM47.8108 38.168C46.7388 38.168 45.7068 38.032 44.7148 37.76C43.7388 37.472 42.9628 37.128 42.3868 36.728L43.5388 34.448C44.1148 34.816 44.8028 35.12 45.6028 35.36C46.4028 35.6 47.2028 35.72 48.0028 35.72C48.9468 35.72 49.6268 35.592 50.0428 35.336C50.4748 35.08 50.6908 34.736 50.6908 34.304C50.6908 33.952 50.5468 33.688 50.2588 33.512C49.9708 33.32 49.5948 33.176 49.1308 33.08C48.6668 32.984 48.1468 32.896 47.5708 32.816C47.0108 32.736 46.4428 32.632 45.8668 32.504C45.3068 32.36 44.7948 32.16 44.3308 31.904C43.8668 31.632 43.4908 31.272 43.2028 30.824C42.9148 30.376 42.7708 29.784 42.7708 29.048C42.7708 28.232 43.0028 27.528 43.4668 26.936C43.9308 26.328 44.5788 25.864 45.4108 25.544C46.2588 25.208 47.2588 25.04 48.4108 25.04C49.2748 25.04 50.1468 25.136 51.0268 25.328C51.9068 25.52 52.6348 25.792 53.2108 26.144L52.0588 28.424C51.4508 28.056 50.8348 27.808 50.2108 27.68C49.6028 27.536 48.9948 27.464 48.3868 27.464C47.4748 27.464 46.7948 27.6 46.3468 27.872C45.9148 28.144 45.6988 28.488 45.6988 28.904C45.6988 29.288 45.8428 29.576 46.1308 29.768C46.4188 29.96 46.7948 30.112 47.2588 30.224C47.7228 30.336 48.2348 30.432 48.7948 30.512C49.3708 30.576 49.9388 30.68 50.4988 30.824C51.0588 30.968 51.5708 31.168 52.0348 31.424C52.5148 31.664 52.8988 32.008 53.1868 32.456C53.4748 32.904 53.6188 33.488 53.6188 34.208C53.6188 35.008 53.3788 35.704 52.8988 36.296C52.4348 36.888 51.7708 37.352 50.9068 37.688C50.0428 38.008 49.0108 38.168 47.8108 38.168ZM56.2024 38V25.184H59.2024V38H56.2024ZM57.7144 23.072C57.1544 23.072 56.6904 22.896 56.3224 22.544C55.9704 22.192 55.7944 21.768 55.7944 21.272C55.7944 20.76 55.9704 20.336 56.3224 20C56.6904 19.648 57.1544 19.472 57.7144 19.472C58.2744 19.472 58.7304 19.64 59.0824 19.976C59.4504 20.296 59.6344 20.704 59.6344 21.2C59.6344 21.728 59.4584 22.176 59.1064 22.544C58.7544 22.896 58.2904 23.072 57.7144 23.072ZM63.1399 38V20.192H66.1399V38H63.1399ZM77.9734 38V35.408L77.8054 34.856V30.32C77.8054 29.44 77.5414 28.76 77.0134 28.28C76.4854 27.784 75.6854 27.536 74.6134 27.536C73.8934 27.536 73.1814 27.648 72.4774 27.872C71.7894 28.096 71.2054 28.408 70.7254 28.808L69.5494 26.624C70.2374 26.096 71.0534 25.704 71.9974 25.448C72.9574 25.176 73.9494 25.04 74.9734 25.04C76.8294 25.04 78.2614 25.488 79.2694 26.384C80.2934 27.264 80.8054 28.632 80.8054 30.488V38H77.9734ZM73.9414 38.168C72.9814 38.168 72.1414 38.008 71.4214 37.688C70.7014 37.352 70.1414 36.896 69.7414 36.32C69.3574 35.728 69.1654 35.064 69.1654 34.328C69.1654 33.608 69.3334 32.96 69.6694 32.384C70.0214 31.808 70.5894 31.352 71.3734 31.016C72.1574 30.68 73.1974 30.512 74.4934 30.512H78.2134V32.504H74.7094C73.6854 32.504 72.9974 32.672 72.6454 33.008C72.2934 33.328 72.1174 33.728 72.1174 34.208C72.1174 34.752 72.3334 35.184 72.7654 35.504C73.1974 35.824 73.7974 35.984 74.5654 35.984C75.3014 35.984 75.9574 35.816 76.5334 35.48C77.1254 35.144 77.5494 34.648 77.8054 33.992L78.3094 35.792C78.0214 36.544 77.5014 37.128 76.7494 37.544C76.0134 37.96 75.0774 38.168 73.9414 38.168ZM87.8291 38L82.3331 25.184H85.4531L90.1811 36.488H88.6451L93.5411 25.184H96.4211L90.9251 38H87.8291ZM98.2961 38V25.184H101.296V38H98.2961ZM99.8081 23.072C99.2481 23.072 98.7841 22.896 98.4161 22.544C98.0641 22.192 97.8881 21.768 97.8881 21.272C97.8881 20.76 98.0641 20.336 98.4161 20C98.7841 19.648 99.2481 19.472 99.8081 19.472C100.368 19.472 100.824 19.64 101.176 19.976C101.544 20.296 101.728 20.704 101.728 21.2C101.728 21.728 101.552 22.176 101.2 22.544C100.848 22.896 100.384 23.072 99.8081 23.072ZM109.194 38.168C108.122 38.168 107.09 38.032 106.098 37.76C105.122 37.472 104.346 37.128 103.77 36.728L104.922 34.448C105.498 34.816 106.186 35.12 106.986 35.36C107.786 35.6 108.586 35.72 109.386 35.72C110.33 35.72 111.01 35.592 111.426 35.336C111.858 35.08 112.074 34.736 112.074 34.304C112.074 33.952 111.93 33.688 111.642 33.512C111.354 33.32 110.978 33.176 110.514 33.08C110.05 32.984 109.53 32.896 108.954 32.816C108.394 32.736 107.826 32.632 107.25 32.504C106.69 32.36 106.178 32.16 105.714 31.904C105.25 31.632 104.874 31.272 104.586 30.824C104.298 30.376 104.154 29.784 104.154 29.048C104.154 28.232 104.386 27.528 104.85 26.936C105.314 26.328 105.962 25.864 106.794 25.544C107.642 25.208 108.642 25.04 109.794 25.04C110.658 25.04 111.53 25.136 112.41 25.328C113.29 25.52 114.018 25.792 114.594 26.144L113.442 28.424C112.834 28.056 112.218 27.808 111.594 27.68C110.986 27.536 110.378 27.464 109.77 27.464C108.858 27.464 108.178 27.6 107.73 27.872C107.298 28.144 107.082 28.488 107.082 28.904C107.082 29.288 107.226 29.576 107.514 29.768C107.802 29.96 108.178 30.112 108.642 30.224C109.106 30.336 109.618 30.432 110.178 30.512C110.754 30.576 111.322 30.68 111.882 30.824C112.442 30.968 112.954 31.168 113.418 31.424C113.898 31.664 114.282 32.008 114.57 32.456C114.858 32.904 115.002 33.488 115.002 34.208C115.002 35.008 114.762 35.704 114.282 36.296C113.818 36.888 113.154 37.352 112.29 37.688C111.426 38.008 110.394 38.168 109.194 38.168ZM122.409 38.168C121.001 38.168 119.913 37.808 119.145 37.088C118.377 36.352 117.993 35.272 117.993 33.848V22.352H120.993V33.776C120.993 34.384 121.145 34.856 121.449 35.192C121.769 35.528 122.209 35.696 122.769 35.696C123.441 35.696 124.001 35.52 124.449 35.168L125.289 37.304C124.937 37.592 124.505 37.808 123.993 37.952C123.481 38.096 122.953 38.168 122.409 38.168ZM115.881 27.68V25.28H124.425V27.68H115.881ZM135.653 38V35.408L135.485 34.856V30.32C135.485 29.44 135.221 28.76 134.693 28.28C134.165 27.784 133.365 27.536 132.293 27.536C131.573 27.536 130.861 27.648 130.157 27.872C129.469 28.096 128.885 28.408 128.405 28.808L127.229 26.624C127.917 26.096 128.733 25.704 129.677 25.448C130.637 25.176 131.629 25.04 132.653 25.04C134.509 25.04 135.941 25.488 136.949 26.384C137.973 27.264 138.485 28.632 138.485 30.488V38H135.653ZM131.621 38.168C130.661 38.168 129.821 38.008 129.101 37.688C128.381 37.352 127.821 36.896 127.421 36.32C127.037 35.728 126.845 35.064 126.845 34.328C126.845 33.608 127.013 32.96 127.349 32.384C127.701 31.808 128.269 31.352 129.053 31.016C129.837 30.68 130.877 30.512 132.173 30.512H135.893V32.504H132.389C131.365 32.504 130.677 32.672 130.325 33.008C129.973 33.328 129.797 33.728 129.797 34.208C129.797 34.752 130.013 35.184 130.445 35.504C130.877 35.824 131.477 35.984 132.245 35.984C132.981 35.984 133.637 35.816 134.213 35.48C134.805 35.144 135.229 34.648 135.485 33.992L135.989 35.792C135.701 36.544 135.181 37.128 134.429 37.544C133.693 37.96 132.757 38.168 131.621 38.168Z" fill="url(#paint0_linear_10_96)"/>
<defs>
<linearGradient id="paint0_linear_10_96" x1="30" y1="33" x2="158.5" y2="34.5" gradientUnits="userSpaceOnUse">
<stop stop-color="#FFCC29"/>
<stop offset="0.5" stop-color="#00A859" stop-opacity="0.66"/>
<stop offset="1" stop-color="#3C3B6E" stop-opacity="0"/>
</linearGradient>
</defs>
</svg>
